<svg xmlns="http://www.w3.org/2000/svg" xmlns:xlink="http://www.w3.org/1999/xlink" width="256" zoomAndPan="magnify" viewBox="0 0 192 191.999996" height="256" preserveAspectRatio="xMidYMid meet" version="1.0"><defs><clipPath id="c1ff7a0678"><path d="M 1.378906 1.335938 L 190.378906 1.335938 L 190.378906 190.335938 L 1.378906 190.335938 Z M 1.378906 1.335938 " clip-rule="nonzero"/></clipPath></defs><g clip-path="url(#c1ff7a0678)"><path fill="#000000" d="M 124.613281 15.640625 C 128.566406 24.1875 124.613281 31.414062 115.832031 32.285156 C 111.675781 24.222656 115.265625 17.210938 124.613281 15.640625 Z M 96.320312 80.957031 C 106.484375 72.460938 106.269531 61.792969 95.851562 54.46875 C 90.328125 57.554688 87.972656 62.628906 88.375 68.671875 C 88.726562 74.03125 90.8125 78.785156 96.320312 80.957031 Z M 44.808594 56.003906 C 48.449219 45.203125 41.804688 36.589844 30.972656 37.589844 C 27.53125 47.722656 33.160156 55.453125 44.808594 56.003906 Z M 133.59375 81.257812 C 146.394531 77.085938 150.152344 65.566406 142.105469 56.335938 C 129.886719 60.691406 126.433594 70.390625 133.59375 81.257812 Z M 127.550781 133.617188 C 127.265625 146.589844 135.527344 153.25 147.695312 150.3125 C 149.699219 138.410156 140.269531 130.398438 127.550781 133.617188 Z M 67.859375 163.699219 C 81.164062 160.210938 85.703125 150.996094 79.8125 140.363281 C 67.242188 141.949219 61.75 152.398438 67.859375 163.699219 Z M 95.96875 106.5625 C 85.652344 113.722656 85.6875 125.875 96.019531 132.585938 C 106.433594 125.589844 106.417969 113.773438 95.96875 106.5625 Z M 146.8125 126.507812 C 151.117188 138.808594 162.753906 141.765625 172.183594 133.351562 C 167.925781 121.867188 157.628906 118.945312 146.8125 126.507812 Z M 18.234375 133.066406 C 27.617188 141.195312 37.5 138.945312 43.875 126.875 C 33.960938 118.363281 22.574219 121.265625 18.234375 133.066406 Z M 79.078125 80.105469 C 72.316406 90.503906 75.9375 100.519531 88.359375 104.792969 C 95.535156 93.324219 91.277344 82.476562 79.078125 80.105469 Z M 20.855469 92.257812 C 25.179688 95.644531 30.054688 96.847656 35.246094 94.328125 C 35.210938 81.273438 28.449219 75.230469 15.199219 76.816406 C 13.980469 83.425781 16.050781 88.46875 20.855469 92.257812 Z M 94.117188 12.1875 C 84.585938 11.351562 79.128906 18.546875 81.949219 28.175781 C 91.363281 29.128906 96.953125 21.769531 94.117188 12.1875 Z M 74.101562 33.050781 C 79.09375 24.9375 75.039062 16.695312 65.15625 14.890625 C 60.132812 22.917969 64.253906 31.265625 74.101562 33.050781 Z M 143.875 52.195312 C 152.789062 51.863281 157.027344 46.054688 154.558594 37.574219 C 145.609375 36.789062 140.203125 44.203125 143.875 52.195312 Z M 190.613281 95.996094 C 190.613281 148.257812 148.246094 190.621094 95.984375 190.621094 C 43.742188 190.605469 1.378906 148.242188 1.378906 95.996094 C 1.378906 43.734375 43.742188 1.371094 96.003906 1.371094 C 148.246094 1.371094 190.613281 43.734375 190.613281 95.996094 Z M 8.105469 90.90625 C 8.253906 88.183594 8.539062 85.496094 8.9375 82.84375 C 15.113281 99.417969 29.371094 105.058594 45.894531 110.351562 C 44.226562 102.738281 43.191406 96.328125 41.421875 90.152344 C 37.363281 75.984375 29.785156 65.132812 14.847656 61.761719 C 15.867188 59.359375 16.984375 57.003906 18.203125 54.71875 C 21.859375 55.734375 25.511719 56.871094 28.785156 58.640625 C 38.632812 63.964844 44.425781 72.996094 47.664062 83.394531 C 50.082031 91.1875 51.285156 99.351562 53.171875 107.3125 C 53.640625 109.316406 54.054688 112.203125 55.441406 112.972656 C 58.78125 114.824219 62.535156 116.34375 66.84375 116.511719 C 60.667969 96.0625 60.949219 88.601562 67.925781 69.304688 C 68.710938 67.136719 68.980469 64.582031 68.796875 62.261719 C 67.59375 47.121094 56.160156 33.535156 41.238281 29.261719 C 40.550781 29.0625 39.816406 28.945312 39.101562 28.792969 C 41.671875 26.609375 44.375 24.570312 47.179688 22.703125 C 59.082031 27.125 67.695312 35.4375 73.285156 47.324219 C 74.253906 49.375 75.121094 51.496094 76.324219 54.234375 C 80.878906 48.542969 84.835938 43.699219 88.691406 38.761719 C 96.085938 29.296875 105.066406 20.800781 108.335938 8.816406 C 111.074219 9.199219 113.761719 9.699219 116.398438 10.332031 C 116.25 11.035156 116.015625 11.71875 115.730469 12.335938 C 112.5625 18.796875 109.390625 25.355469 105.265625 31.214844 C 99.707031 39.09375 92.863281 46.070312 87.339844 53.964844 C 82.382812 61.042969 77.660156 68.488281 74.238281 76.367188 C 67.460938 91.957031 70.429688 107.078125 78.726562 121.417969 C 79.429688 122.636719 80.480469 123.6875 81.496094 124.707031 C 86.40625 129.597656 91.34375 134.453125 95.835938 138.910156 C 100.527344 134.371094 105.867188 129.246094 111.140625 124.070312 C 111.992188 123.238281 112.710938 122.21875 113.296875 121.183594 C 121.609375 106.511719 124.128906 91.089844 117.25 75.332031 C 116.882812 74.480469 116.484375 73.644531 116.082031 72.828125 C 112.792969 64.480469 115.25 55.601562 116.667969 51.730469 C 117.386719 49.960938 117.984375 48.457031 118.671875 47.003906 C 124.277344 35.269531 132.890625 27.027344 144.726562 22.667969 C 147.546875 24.539062 150.234375 26.574219 152.820312 28.761719 C 152.371094 28.878906 151.902344 28.976562 151.46875 29.113281 C 136.464844 33.503906 127.28125 43.382812 123.511719 58.523438 C 122.425781 62.894531 122.507812 66.902344 124.410156 71.160156 C 130.421875 84.511719 130.9375 98.214844 126.332031 112.121094 C 125.863281 113.523438 125.730469 115.042969 125.332031 117.109375 C 129.988281 115.457031 133.828125 114.105469 137.699219 112.738281 C 137.949219 111.035156 138.148438 109.601562 138.367188 108.179688 C 140.019531 97.164062 141.972656 86.230469 147.097656 76.183594 C 152.621094 65.367188 160.714844 57.519531 172.785156 54.417969 C 173.035156 54.351562 173.269531 54.316406 173.519531 54.25 C 174.820312 56.652344 176.007812 59.125 177.089844 61.660156 C 176.15625 61.84375 175.238281 62.078125 174.4375 62.511719 C 170.015625 64.882812 164.972656 66.769531 161.566406 70.207031 C 150.984375 80.90625 148.164062 94.742188 146.878906 109.949219 C 162.902344 104.976562 176.941406 99 183.035156 82.625 C 183.117188 83.125 183.183594 83.628906 183.25 84.128906 C 177.441406 41.097656 140.585938 7.945312 96.003906 7.945312 C 49.082031 7.945312 10.722656 44.652344 8.105469 90.90625 Z M 184.019531 94.476562 C 184.035156 94.976562 184.035156 95.476562 184.035156 95.980469 C 184.035156 95.476562 184.035156 94.976562 184.019531 94.476562 Z M 183.96875 92.609375 C 183.984375 93.109375 184 93.609375 184.019531 94.109375 C 184 93.59375 183.984375 93.089844 183.96875 92.609375 Z M 183.902344 91.089844 C 183.933594 91.589844 183.953125 92.089844 183.96875 92.589844 C 183.953125 92.089844 183.933594 91.589844 183.902344 91.089844 Z M 183.652344 87.714844 C 183.75 88.71875 183.816406 89.71875 183.882812 90.738281 C 183.816406 89.71875 183.75 88.71875 183.652344 87.714844 Z M 183.285156 84.394531 C 183.417969 85.398438 183.535156 86.398438 183.632812 87.417969 C 183.515625 86.398438 183.417969 85.398438 183.285156 84.394531 Z M 92.949219 183.976562 C 90.042969 183.878906 87.171875 183.628906 84.335938 183.261719 C 86.871094 180.171875 88.792969 176.582031 90.175781 172.5625 C 96.085938 155.234375 88.707031 136.671875 71.964844 128.527344 C 63.789062 124.539062 54.773438 122.285156 46.226562 118.980469 C 37.464844 115.609375 28.550781 112.46875 20.222656 108.214844 C 15.332031 105.710938 11.257812 102.289062 8.003906 98.132812 C 7.988281 97.414062 7.96875 96.695312 7.96875 95.996094 C 7.96875 95.496094 7.96875 94.996094 7.988281 94.492188 C 7.96875 94.996094 7.96875 95.496094 7.96875 95.996094 C 7.953125 143.585938 45.726562 182.359375 92.949219 183.976562 Z M 7.96875 94.144531 C 7.988281 93.109375 8.039062 92.089844 8.085938 91.070312 C 8.039062 92.089844 7.988281 93.109375 7.96875 94.144531 Z M 96.003906 184.027344 C 96.453125 184.027344 96.902344 184.027344 97.355469 184.011719 C 96.886719 184.027344 96.4375 184.027344 96.003906 184.027344 C 95.550781 184.027344 95.101562 184.027344 94.652344 184.011719 C 95.085938 184.027344 95.535156 184.027344 96.003906 184.027344 Z M 94.300781 184.011719 C 93.933594 184.011719 93.566406 183.996094 93.199219 183.976562 C 93.566406 183.996094 93.933594 184.011719 94.300781 184.011719 Z M 184.035156 95.996094 C 184.035156 96.246094 184.035156 96.511719 184.019531 96.765625 C 183.117188 98.148438 182.148438 99.484375 181.097656 100.738281 C 175.253906 107.730469 167.007812 111.652344 158.511719 114.640625 C 149.648438 117.777344 140.503906 120.183594 131.738281 123.570312 C 125.261719 126.074219 118.769531 128.996094 113.027344 132.816406 C 98.90625 142.214844 94.734375 167.886719 107.535156 183.261719 C 104.734375 183.628906 101.894531 183.859375 99.023438 183.960938 C 146.246094 182.375 184.035156 143.601562 184.035156 95.996094 Z M 98.757812 183.976562 C 98.40625 183.996094 98.039062 183.996094 97.6875 184.011719 C 98.039062 184.011719 98.40625 183.996094 98.757812 183.976562 Z M 57.796875 79.839844 C 61.351562 78.804688 62.96875 73.613281 61.417969 68.222656 C 59.863281 62.828125 55.707031 59.308594 52.152344 60.34375 C 48.597656 61.378906 46.980469 66.566406 48.53125 71.960938 C 50.082031 77.351562 54.238281 80.875 57.796875 79.839844 Z M 111.242188 82.542969 C 107.71875 81.425781 103.480469 84.847656 101.777344 90.1875 C 100.074219 95.527344 101.578125 100.769531 105.101562 101.886719 C 108.621094 103.007812 112.863281 99.585938 114.5625 94.242188 C 116.265625 88.902344 114.78125 83.660156 111.242188 82.542969 Z M 169.878906 76.148438 C 166.359375 75.03125 162.117188 78.453125 160.417969 83.792969 C 158.714844 89.136719 160.214844 94.375 163.738281 95.496094 C 167.257812 96.613281 171.5 93.191406 173.203125 87.851562 C 174.886719 82.507812 173.402344 77.269531 169.878906 76.148438 Z M 118.335938 147.539062 C 114.8125 146.421875 110.574219 149.84375 108.871094 155.183594 C 107.167969 160.527344 108.671875 165.765625 112.195312 166.886719 C 115.714844 168.003906 119.957031 164.582031 121.65625 159.242188 C 123.359375 153.898438 121.859375 148.660156 118.335938 147.539062 Z M 52.671875 133.117188 C 49.148438 132 44.910156 135.421875 43.207031 140.761719 C 41.503906 146.105469 43.007812 151.347656 46.527344 152.464844 C 50.050781 153.582031 54.289062 150.160156 55.992188 144.820312 C 57.695312 139.476562 56.210938 134.238281 52.671875 133.117188 Z M 52.671875 133.117188 " fill-opacity="1" fill-rule="nonzero"/></g></svg>