<?xml version="1.0" encoding="UTF-8"?>
<svg width="525px" height="106px" viewBox="0 0 525 106" version="1.1" xmlns="http://www.w3.org/2000/svg" xmlns:xlink="http://www.w3.org/1999/xlink">
    <title>Podchaser/Logo/Icon Text/Large/Dark</title>
    <defs>
        <linearGradient x1="50%" y1="0%" x2="50%" y2="100%" id="linearGradient-1">
            <stop stop-color="#4C3D79" offset="0%"></stop>
            <stop stop-color="#0C0D2C" offset="100%"></stop>
        </linearGradient>
        <linearGradient x1="100%" y1="50%" x2="0%" y2="50%" id="linearGradient-2">
            <stop stop-color="#000000" offset="0%"></stop>
            <stop stop-color="#E3E3E3" stop-opacity="0" offset="51.095389%"></stop>
            <stop stop-color="#000000" offset="100%"></stop>
        </linearGradient>
        <radialGradient cx="50%" cy="50%" fx="50%" fy="50%" r="50%" id="radialGradient-3">
            <stop stop-color="#FFFFFF" stop-opacity="0" offset="0%"></stop>
            <stop stop-color="#FFFFFF" stop-opacity="0" offset="91.8478261%"></stop>
            <stop stop-color="#FFFFFF" offset="100%"></stop>
        </radialGradient>
    </defs>
    <g id="Podchaser/Logo/Icon-Text/Large/Dark" stroke="none" stroke-width="1" fill="none" fill-rule="evenodd">
        <g id="Podchaser/Logo/Icon/Updated/Gradient">
            <circle id="Outer-Pink" fill="#FF3382" fill-rule="nonzero" cx="53" cy="53" r="53"></circle>
            <circle id="Outer-White" fill="#FFFFFF" fill-rule="nonzero" cx="53" cy="53" r="45.58"></circle>
            <path d="M53,20.2782609 C71.7080456,20.2782609 86.873913,35.4441283 86.873913,54.1521739 C86.873913,72.8602195 71.7080456,88.026087 53,88.026087 C47.7137881,88.026087 42.7103913,86.8152113 38.2520457,84.655696 L38.2517745,96.1898453 C30.8295196,93.656017 24.2686938,89.2627062 19.1248163,83.5654322 L19.126087,54.1521739 L19.1306251,53.5920068 C19.4297585,35.1423276 34.4790349,20.2782609 53,20.2782609 Z" id="Combined-Shape" fill="url(#linearGradient-1)" fill-rule="nonzero"></path>
            <circle id="Oval" fill-opacity="0.3" fill="url(#linearGradient-2)" style="mix-blend-mode: overlay;" cx="53" cy="53" r="53"></circle>
            <circle id="Oval" fill-opacity="0.2" fill="url(#radialGradient-3)" style="mix-blend-mode: overlay;" cx="53" cy="53" r="53"></circle>
            <circle id="Oval" cx="53" cy="53" r="45.8565217"></circle>
        </g>
        <path d="M506.96749,39.9604613 L506.96749,42.6160943 C508.84108,40.5393916 513.416958,39.8321833 517.035633,39.9823766 L517.745521,40.0236956 L518.423378,40.0869682 C520.512342,40.3211304 522.021647,40.8718185 522.021647,41.6089419 C522.021647,41.8649248 521.970252,42.2352491 521.878563,42.6855448 L521.749906,43.2620862 L521.586828,43.9022018 L521.393591,44.5926936 L521.17446,45.3203634 C521.136017,45.4440067 521.096672,45.5686491 521.056515,45.6940157 L520.806532,46.452706 L520.541308,47.215579 L520.265108,47.9694365 L519.982192,48.7010804 L519.696824,49.3973125 C519.601766,49.6220215 519.50701,49.8386288 519.413266,50.0449347 L519.135779,50.6307489 C518.68073,51.5482668 518.26874,52.1532588 517.98861,52.1707637 C511.193447,52.3262365 508.598615,54.2299138 508.486645,59.0709126 L508.482838,59.4055463 L508.482838,81.3020762 L496.580653,81.3020762 L496.5,69.9830049 L496.581305,50.4598072 L496.580653,39.9604613 L506.96749,39.9604613 Z" id="er" fill="#111111" fill-rule="nonzero"></path>
        <path d="M492.205358,56.3045776 L492.468123,57.8565123 L492.468123,57.8565123 L492.51313,58.1811376 L492.51313,58.1811376 L492.539365,58.4157461 L492.539365,58.4157461 L492.56902,58.7909101 L492.56902,58.7909101 L492.582183,59.1891323 L492.582183,59.1891323 L492.579098,59.4647333 C492.518162,61.4640613 491.580843,63.9419731 487.086855,64.2243131 L486.645177,64.2450309 L486.645177,64.2450309 L480.695345,64.4172494 L480.695345,64.4172494 L462.406596,64.8498376 L462.406596,64.8498376 C463.045051,68.8247344 467.208517,71.7867626 475.153866,71.7867626 C478.796664,71.7867626 482.720336,70.4326037 486.924883,67.7242857 L492.273551,76.0974 C486.50934,80.5347589 480.425366,82.7534383 474.02163,82.7534383 C467.444873,82.7534383 462.950327,81.0449339 459.749741,78.8970305 L459.267445,78.5632884 C458.873862,78.2825663 458.500883,77.9956917 458.146847,77.705339 L457.73099,77.3554173 L457.73099,77.3554173 L457.33268,77.0031836 C457.267721,76.9443423 457.203468,76.8854476 457.139905,76.8265206 L456.76672,76.4727443 L456.76672,76.4727443 L456.409488,76.1192232 L456.409488,76.1192232 L456.06757,75.7669843 C456.011824,75.7084417 455.956691,75.6499954 455.902155,75.5916666 C452.31733,71.7575114 450.705581,66.7087255 450.525702,61.5576542 C450.104084,49.4840947 459.103675,39.4991959 470.774783,39.0916319 C481.224631,38.7267151 490.168112,45.2169077 492.205358,56.3045776 L492.205358,56.3045776 Z M471.215054,49.3915918 C466.6925,49.5495229 463.462971,52.0824755 462.454779,56.298629 L462.364178,56.7118752 L480.635498,56.0738267 C479.684433,51.9164339 475.883497,49.2285662 471.215054,49.3915918 Z" id="e" fill="#111111" fill-rule="nonzero"></path>
        <path d="M447.368229,52.3829635 C447.04246,49.0314199 446.390923,47.2758495 444.680636,45.1212858 C441.911601,41.6899435 437.513722,39.7747758 432.219979,39.7747758 C423.01701,39.7747758 415.687211,45.6000777 415.687211,53.0213527 C415.687211,58.2082654 419.35211,62.8365874 424.401527,64.1133659 C433.767381,66.5073256 433.767381,66.5073256 435.314783,67.7043055 C435.96632,68.262896 436.373531,69.1406813 436.373531,69.9386678 C436.373531,71.6942383 434.500361,73.0508154 432.138537,73.0508154 C429.450944,73.0508154 427.8221,71.7740369 427.496331,69.3800772 L415.28,69.3800772 C415.687211,73.5296074 416.827402,75.8437684 419.514995,78.3175267 C422.691241,81.1902783 426.844793,82.7064528 431.649883,82.7064528 C441.341506,82.7064528 448.671304,76.8013523 448.671304,69.0608826 C448.671304,65.6295404 447.368229,62.7567888 444.762078,60.6022251 C442.726023,58.9264533 440.608526,58.0486681 434.337476,56.3728963 C430.021039,55.2557151 427.984984,53.8193393 427.984984,51.9839702 C427.984984,50.4677957 429.532386,49.4304132 431.89421,49.4304132 C434.09315,49.4304132 435.151898,50.3081984 435.396225,52.3829635 L447.368229,52.3829635 Z" id="s" fill="#111111" fill-rule="nonzero"></path>
        <path d="M400.581319,81.2631146 L412.013664,81.2631146 L412.013664,41.1243906 L400.581319,41.1243906 L400.581319,45.3537193 C398.327054,41.5233838 394.462599,39.6880147 388.343879,39.6880147 C376.106439,39.6880147 367.491925,48.5456656 367.491925,61.1538533 C367.491925,73.8418396 375.86491,82.6196918 388.021841,82.6196918 C394.543108,82.6196918 398.649091,80.7843227 400.581319,76.9539872 L400.581319,81.2631146 Z M379.648856,61.0740546 C379.648856,55.40835 384.076877,51.0194239 389.71254,51.0194239 C395.589731,51.0194239 399.937243,55.3285514 399.937243,61.1538533 C399.937243,67.0589538 395.670241,71.3680812 389.793049,71.3680812 C383.996367,71.3680812 379.648856,66.9791552 379.648856,61.0740546 Z" id="a" fill="#111111" fill-rule="nonzero"></path>
        <path d="M325.92236,81.0296297 L338.287993,81.0296297 L338.287993,58.517198 C338.287993,55.370299 338.697451,53.8371943 339.925825,52.5461588 C341.072308,51.335813 343.20149,50.4482261 345.166889,50.4482261 C349.507144,50.4482261 351.718217,53.353056 351.718217,58.9206466 L351.718217,81.0296297 L364.083851,81.0296297 L364.083851,58.3558186 C364.083851,49.9640878 363.183043,46.5751196 360.234945,43.4282205 C357.532522,40.6847701 353.519833,39.0709757 349.015794,39.0709757 C344.020406,39.0709757 340.253392,40.8461495 338.287993,44.154428 L338.287993,26.9675179 L325.92236,26.9675179 L325.92236,81.0296297 Z" id="h" fill="#111111" fill-rule="nonzero"></path>
        <path d="M311.000081,65.9906623 C308.484958,69.7481834 305.888702,71.3471285 301.994317,71.3471285 C296.39614,71.3471285 292.339489,67.1099239 292.339489,61.2737741 C292.339489,55.3576771 296.39614,50.960578 301.994317,50.960578 C306.050968,50.960578 309.377421,53.0392067 310.837815,56.556886 L323.251165,56.556886 C321.060574,46.5634788 312.298209,39.6880147 301.588652,39.6880147 C292.74317,39.6880147 285.331152,44.6960198 281.990683,52.1125009 L281.992902,70.0297213 C285.374183,77.4962414 292.922753,82.6196918 301.913184,82.6196918 C312.217076,82.6196918 320.898308,75.8241749 323.332298,65.9906623 L311.000081,65.9906623 Z" id="c" fill="#111111" fill-rule="nonzero"></path>
        <path d="M266.294918,81.2425637 L277.810559,81.2425637 L277.810559,26.9675179 L265.565053,26.9675179 L265.565053,43.9790994 C262.321211,40.6577906 258.590792,39.1186475 253.562836,39.1186475 C241.885003,39.1186475 233.28882,48.3535061 233.28882,60.8286659 C233.28882,73.4658407 241.885003,82.6196918 253.725028,82.6196918 C259.320657,82.6196918 262.807787,80.9995411 266.294918,76.8681571 L266.294918,81.2425637 Z M245.534326,60.7476583 C245.534326,54.8341086 249.913513,50.5407094 255.995718,50.5407094 C261.834635,50.5407094 266.294918,54.9961236 266.294918,60.6666508 C266.294918,66.6612081 261.834635,71.1976299 255.833526,71.1976299 C249.832417,71.1976299 245.534326,66.8232232 245.534326,60.7476583 Z" id="d" fill="#111111" fill-rule="nonzero"></path>
        <path d="M208.214905,39.6880147 C215.512206,39.6880147 221.251657,42.246327 225.515249,47.2830042 C228.712943,51.2004198 230.51677,56.0772024 230.51677,61.1138796 C230.51677,66.9500294 228.138998,72.5463374 224.03939,76.6236475 C220.021775,80.6210103 214.610292,82.6196918 208.132912,82.6196918 C195.260144,82.6196918 185.995031,73.5856517 185.995031,61.0339324 C185.995031,55.3576771 188.372803,49.6814219 192.472411,45.684059 C196.24405,41.9265379 202.065493,39.6880147 208.214905,39.6880147 Z M208.296897,50.960578 C202.803422,50.960578 198.375846,55.4376244 198.375846,61.0339324 C198.375846,66.9500294 202.639438,71.3471285 208.296897,71.3471285 C213.872363,71.3471285 218.135955,66.9500294 218.135955,61.1138796 C218.135955,55.5175716 213.708379,50.960578 208.296897,50.960578 Z" id="o" fill="#111111" fill-rule="nonzero"></path>
        <path d="M144.925466,81.0296297 L158.377896,81.0296297 L158.377896,64.0847886 L164.447895,64.0847886 C172.158434,64.0847886 176.833974,62.7130634 180.443163,59.4047849 C184.134378,56.0158167 186.267081,50.8516747 186.267081,45.3647738 C186.267081,39.555114 183.888297,34.3102823 179.786947,31.0020038 C176.177758,28.0971739 171.666272,26.9675179 162.889382,26.9675179 L144.925466,26.9675179 L144.925466,81.0296297 Z M158.377896,51.9006411 L158.377896,39.1516654 L163.545598,39.1516654 C166.908706,39.1516654 168.959381,39.555114 170.271813,40.4427009 C171.830326,41.4109776 172.81465,43.5089103 172.81465,45.5261532 C172.81465,47.3820168 171.99438,49.2378803 170.681948,50.3675364 C169.287489,51.4971925 167.400868,51.9006411 164.03776,51.9006411 L158.377896,51.9006411 Z" id="P" fill="#111111" fill-rule="nonzero"></path>
    </g>
</svg>